<?xml version="1.0" standalone="no"?>
<!DOCTYPE svg PUBLIC "-//W3C//DTD SVG 20010904//EN"
 "http://www.w3.org/TR/2001/REC-SVG-20010904/DTD/svg10.dtd">
<svg version="1.0" xmlns="http://www.w3.org/2000/svg"
 width="285.000000pt" height="285.000000pt" viewBox="0 0 285.000000 285.000000"
 preserveAspectRatio="xMidYMid meet">

<g transform="translate(0.000000,285.000000) scale(0.100000,-0.100000)"
fill="#000000" stroke="none">
<path d="M1250 2840 c-326 -46 -603 -182 -830 -410 -202 -202 -331 -439 -392
-723 -31 -146 -31 -418 0 -564 61 -284 190 -521 392 -723 202 -202 439 -331
723 -392 146 -31 418 -31 564 0 284 61 521 190 723 392 202 202 331 439 392
723 31 146 31 418 0 564 -61 284 -190 521 -392 723 -200 201 -441 332 -718
390 -111 24 -359 34 -462 20z m268 -55 c20 -9 47 -26 60 -38 31 -28 62 -89 62
-120 0 -32 14 -43 89 -66 34 -11 71 -27 81 -36 18 -16 19 -15 33 12 45 86 166
128 258 89 41 -17 94 -71 108 -109 13 -35 14 -142 2 -166 -8 -14 3 -30 53 -83
l63 -67 44 16 c86 29 194 -9 237 -85 46 -82 22 -216 -48 -275 l-32 -28 27 -87
c15 -48 29 -93 31 -99 2 -7 15 -13 29 -13 34 0 94 -26 123 -53 41 -38 65 -97
65 -157 -1 -112 -65 -192 -171 -215 -18 -4 -35 -12 -37 -18 -1 -7 -15 -51 -30
-99 l-28 -86 35 -34 c67 -63 77 -192 22 -270 -16 -23 -41 -50 -56 -61 -34 -25
-118 -34 -169 -17 l-40 13 -58 -59 -59 -59 10 -56 c14 -72 5 -116 -33 -168
-45 -63 -82 -81 -162 -81 -84 0 -125 17 -167 68 l-32 40 -42 -19 c-23 -10 -61
-21 -84 -25 -49 -8 -57 -16 -65 -66 -8 -52 -54 -116 -101 -140 -55 -28 -149
-29 -201 -2 -53 28 -94 81 -103 134 -7 43 -8 44 -62 56 -30 7 -75 21 -99 31
l-45 19 -40 -42 c-70 -73 -168 -82 -259 -24 -59 37 -87 90 -87 165 0 31 5 66
11 78 10 18 8 23 -12 36 -12 9 -46 39 -73 68 -49 50 -52 51 -76 38 -52 -29
-163 -12 -213 33 -11 9 -28 33 -38 54 -43 84 -33 175 29 256 32 42 34 47 22
81 -6 20 -17 63 -23 96 -8 39 -17 60 -27 62 -72 9 -90 16 -124 50 -70 70 -83
189 -32 278 32 55 45 64 119 89 l62 22 21 65 c11 35 26 74 32 86 11 19 8 24
-18 43 -84 60 -112 199 -58 292 49 82 165 120 255 83 34 -15 37 -14 52 7 8 13
35 44 59 70 43 46 43 47 31 86 -23 79 6 165 77 218 30 23 49 29 104 32 88 5
131 -10 174 -60 l35 -41 33 16 c18 8 51 18 73 22 87 14 84 11 91 65 17 131
164 208 292 155z"/>
<path d="M1406 2719 c-38 -10 -75 -46 -93 -88 -13 -31 -13 -37 9 -79 57 -110
164 -116 222 -11 48 88 -42 204 -138 178z"/>
<path d="M795 2548 c-53 -29 -75 -61 -75 -107 0 -27 8 -59 19 -77 20 -32 74
-64 111 -64 32 0 76 26 100 61 66 91 -58 241 -155 187z"/>
<path d="M1948 2530 c-79 -65 -67 -169 24 -216 44 -23 95 -6 142 46 42 47 47
85 16 135 -45 72 -119 87 -182 35z"/>
<path d="M1198 2514 c-4 -3 -37 -16 -75 -28 l-68 -23 -6 -58 c-12 -106 -97
-185 -201 -185 -50 0 -110 20 -139 46 -15 13 -20 9 -61 -38 -61 -72 -60 -70
-38 -114 24 -46 27 -151 6 -193 -8 -15 -33 -44 -55 -64 -37 -33 -62 -43 -134
-49 -25 -3 -31 -10 -49 -58 -44 -121 -44 -122 -23 -134 47 -26 103 -93 115
-136 25 -89 -25 -216 -95 -246 -18 -7 -36 -18 -39 -22 -3 -5 5 -47 17 -93 l22
-84 65 -7 c75 -8 132 -42 165 -98 26 -46 27 -149 1 -202 -20 -41 -19 -43 40
-110 44 -49 50 -52 84 -26 47 34 150 37 209 6 69 -36 104 -86 109 -158 2 -33
10 -63 16 -67 10 -6 166 -63 173 -63 1 0 12 18 23 39 11 22 36 52 56 68 77 59
231 37 272 -38 33 -60 29 -59 122 -32 47 13 91 32 97 41 7 8 13 34 13 57 0
134 173 220 304 150 l46 -25 38 42 c65 72 65 72 40 115 -30 49 -31 140 -4 201
26 57 86 93 170 101 l61 6 24 85 c23 82 23 85 5 95 -41 22 -92 82 -103 120
-33 119 2 216 102 280 14 9 12 20 -12 100 l-28 90 -61 6 c-88 9 -136 44 -168
127 -20 51 -14 127 15 182 l19 37 -58 58 -58 58 -27 -21 c-54 -42 -171 -37
-238 10 -33 24 -56 72 -66 136 l-6 44 -94 36 c-89 34 -95 35 -105 18 -45 -75
-98 -106 -183 -106 -78 1 -132 26 -173 84 -31 43 -49 54 -62 40z m747 -546
c24 -28 27 -39 22 -82 -7 -81 -64 -117 -127 -80 -95 57 -68 194 38 194 33 0
45 -6 67 -32z m-637 -304 c48 -24 93 -65 105 -96 4 -9 14 -2 31 18 14 18 49
47 78 65 51 33 56 34 153 34 91 0 104 -3 146 -27 61 -36 116 -98 127 -145 6
-21 13 -149 16 -285 l7 -248 -63 7 c-35 3 -64 7 -66 8 -1 1 -5 106 -7 233 -4
267 -9 286 -84 334 -36 23 -54 28 -83 25 -53 -7 -106 -43 -139 -96 l-29 -45 0
-210 c0 -116 -3 -220 -6 -232 -5 -18 -13 -20 -70 -20 l-64 1 0 223 c0 246 -3
264 -61 321 -43 43 -92 64 -131 56 -39 -9 -94 -58 -121 -109 -20 -38 -22 -55
-22 -261 l0 -220 -62 -3 -63 -3 0 224 c0 256 7 297 69 375 56 70 123 102 216
102 56 0 82 -5 123 -26z"/>
<path d="M339 2111 c-50 -49 -55 -97 -17 -159 52 -85 163 -79 218 10 33 54 6
124 -64 167 -53 33 -92 28 -137 -18z"/>
<path d="M2372 2130 c-67 -41 -89 -116 -52 -177 51 -84 160 -83 218 1 74 108
-54 244 -166 176z"/>
<path d="M194 1518 c-73 -64 -76 -138 -9 -196 64 -57 126 -49 181 24 49 63 32
129 -46 182 -46 31 -82 28 -126 -10z"/>
<path d="M2552 1534 c-50 -26 -82 -69 -82 -113 0 -76 78 -149 145 -137 46 9
100 64 109 110 18 96 -88 182 -172 140z"/>
<path d="M375 939 c-97 -56 -109 -148 -29 -219 51 -45 102 -42 155 8 45 42 60
82 47 129 -16 62 -121 112 -173 82z"/>
<path d="M2363 930 c-35 -21 -63 -66 -63 -100 0 -65 74 -140 139 -140 48 0
121 73 121 121 0 41 -25 81 -70 114 -41 30 -84 32 -127 5z"/>
<path d="M800 533 c-28 -10 -69 -56 -80 -88 -17 -53 18 -118 82 -151 46 -24
74 -17 123 29 40 39 45 48 45 89 0 85 -91 150 -170 121z"/>
<path d="M1941 502 c-52 -49 -59 -79 -31 -136 23 -49 72 -86 112 -86 59 0 133
78 131 137 -1 31 -9 45 -46 80 -38 36 -52 43 -86 43 -33 0 -47 -7 -80 -38z"/>
<path d="M1378 359 c-10 -5 -29 -30 -44 -55 -38 -65 -24 -119 46 -167 30 -21
62 -22 104 -2 33 16 76 78 76 109 0 27 -38 93 -62 110 -25 18 -94 21 -120 5z"/>
</g>
</svg>
