<?xml version="1.0" standalone="no"?>
<!DOCTYPE svg PUBLIC "-//W3C//DTD SVG 20010904//EN"
 "http://www.w3.org/TR/2001/REC-SVG-20010904/DTD/svg10.dtd">
<svg version="1.0" xmlns="http://www.w3.org/2000/svg"
 width="282.000000pt" height="282.000000pt" viewBox="0 0 282.000000 282.000000"
 preserveAspectRatio="xMidYMid meet">

<g transform="translate(0.000000,282.000000) scale(0.100000,-0.100000)"
fill="#000000" stroke="none">
<path d="M1330 2774 c-69 -30 -115 -90 -128 -167 l-7 -41 -69 -13 c-37 -6 -80
-20 -94 -29 -17 -11 -27 -13 -30 -6 -19 57 -99 101 -183 102 -140 0 -236 -123
-199 -254 l12 -45 -38 -38 c-22 -21 -48 -51 -59 -67 l-20 -28 -50 17 c-68 24
-131 14 -187 -28 -55 -42 -78 -83 -85 -150 -7 -70 27 -151 81 -192 l35 -27
-16 -36 c-8 -21 -23 -61 -31 -90 -13 -43 -20 -53 -41 -58 -14 -2 -49 -16 -76
-29 -83 -41 -127 -134 -112 -232 14 -86 101 -172 173 -173 30 0 32 -2 38 -51
4 -28 15 -72 26 -98 l19 -48 -34 -33 c-36 -35 -65 -103 -65 -153 0 -89 69
-185 149 -207 44 -12 116 -6 127 11 11 19 35 7 86 -43 29 -29 62 -58 72 -63
16 -9 17 -14 6 -34 -7 -15 -11 -49 -8 -92 3 -58 8 -74 34 -106 42 -51 105 -83
165 -83 64 0 96 14 145 62 l42 40 45 -20 c25 -11 71 -26 101 -33 52 -11 56
-14 56 -41 0 -85 100 -168 202 -168 103 0 192 74 205 169 3 24 11 44 17 46 6
1 49 14 95 29 l83 26 38 -43 c54 -61 151 -85 227 -56 96 36 154 161 124 267
-10 32 -7 36 49 94 l59 60 45 -17 c91 -35 187 9 238 109 40 78 20 187 -44 246
l-32 30 18 47 c10 27 24 70 30 98 12 47 15 50 49 56 53 8 112 52 144 106 74
127 -3 296 -145 319 -24 4 -45 12 -47 18 -1 6 -15 49 -29 95 l-27 84 41 40
c39 39 70 111 70 161 0 87 -71 175 -159 196 -44 10 -59 9 -106 -6 l-56 -17
-16 24 c-9 13 -35 41 -58 63 l-42 38 15 51 c29 99 -20 206 -113 248 -95 44
-204 6 -267 -91 -15 -24 -16 -25 -36 -7 -11 10 -49 27 -83 38 -68 21 -79 30
-79 70 0 14 -14 46 -30 73 -52 82 -171 119 -260 80z m139 -82 c39 -19 71 -72
71 -117 0 -43 -42 -101 -85 -115 -46 -15 -86 -6 -117 28 -71 75 -64 154 16
203 39 24 71 24 115 1z m-575 -175 c32 -23 56 -72 56 -118 0 -47 -65 -109
-114 -109 -77 0 -136 59 -136 135 0 51 22 82 74 106 46 20 76 17 120 -14z
m1165 15 c38 -20 71 -73 71 -112 0 -32 -32 -84 -64 -105 -14 -9 -43 -19 -64
-22 -73 -10 -143 79 -122 156 11 41 28 61 75 85 39 21 63 20 104 -2z m-814
-75 c90 -125 270 -111 350 27 9 16 16 15 95 -15 104 -40 110 -44 110 -81 0
-34 24 -95 48 -121 54 -60 173 -76 247 -33 l42 25 57 -58 57 -58 -23 -39 c-36
-61 -33 -155 7 -219 37 -59 91 -90 158 -90 l48 0 24 -78 c14 -43 25 -86 25
-96 0 -10 -17 -30 -39 -44 -101 -67 -110 -240 -19 -335 18 -17 38 -32 45 -32
24 0 24 -23 0 -110 l-24 -85 -33 3 c-87 9 -187 -55 -209 -133 -17 -62 -13
-105 14 -164 l25 -53 -51 -59 c-47 -54 -53 -58 -68 -45 -49 44 -129 56 -202
31 -77 -27 -124 -88 -136 -176 l-8 -54 -65 -21 c-118 -38 -116 -38 -138 0 -32
54 -86 89 -147 94 -29 2 -68 -1 -88 -7 -36 -12 -107 -76 -107 -96 0 -7 -6 -18
-14 -24 -12 -10 -33 -6 -103 18 l-88 30 -5 59 c-7 81 -42 132 -115 167 -47 24
-64 27 -111 22 -36 -4 -70 -15 -94 -31 l-39 -25 -51 59 -52 60 21 55 c34 91
23 171 -30 225 -43 42 -80 60 -146 68 l-56 7 -17 60 c-34 121 -34 113 4 129
58 24 116 124 116 200 0 54 -44 132 -94 168 -26 17 -46 37 -45 42 0 6 13 45
28 86 l28 75 45 6 c60 9 97 30 141 78 62 68 69 150 21 243 -14 28 -14 31 10
61 70 90 74 93 93 80 46 -32 78 -44 121 -49 38 -5 57 0 102 23 72 37 112 93
118 166 l4 53 72 26 c97 35 106 34 141 -15z m1244 -346 c46 -30 64 -108 36
-161 -24 -46 -62 -70 -112 -70 -55 0 -98 24 -118 66 -19 39 -19 65 -2 107 17
39 36 55 84 72 41 15 75 11 112 -14z m-2022 -2 c111 -69 66 -229 -65 -229 -69
0 -122 61 -122 141 0 33 6 47 34 75 28 28 42 34 76 34 26 0 56 -8 77 -21z
m-167 -594 c92 -48 94 -166 4 -226 -78 -51 -184 18 -184 121 0 36 6 48 39 81
43 44 88 51 141 24z m2339 1 c41 -22 61 -58 61 -114 0 -73 -56 -132 -126 -132
-62 0 -124 68 -124 135 0 90 107 153 189 111z m-2169 -601 c41 -21 60 -53 60
-100 0 -128 -165 -185 -234 -81 -18 29 -22 107 -5 137 27 52 120 75 179 44z
m2020 -21 c48 -44 60 -90 36 -140 -34 -72 -122 -95 -183 -48 -108 82 -68 222
64 224 35 0 50 -6 83 -36z m-443 -379 c12 -3 36 -22 52 -41 52 -58 36 -138
-35 -185 -70 -46 -166 2 -188 93 -12 53 32 120 90 138 29 8 38 7 81 -5z
m-1149 -15 c75 -46 69 -159 -11 -209 -85 -52 -187 9 -187 112 0 38 6 52 34 81
29 32 39 36 82 36 31 0 61 -7 82 -20z m571 -155 c17 -8 38 -34 51 -60 20 -42
21 -48 8 -87 -40 -118 -194 -115 -230 4 -11 36 -10 44 12 85 35 67 99 90 159
58z"/>
<path d="M1792 1959 c-37 -37 -42 -79 -14 -122 44 -66 104 -77 147 -25 24 28
27 39 22 82 -9 93 -91 127 -155 65z"/>
<path d="M1090 1671 c-73 -22 -141 -83 -182 -161 -22 -43 -23 -56 -26 -293
l-3 -248 63 3 63 3 5 235 c5 251 9 268 62 316 34 31 63 44 98 44 39 0 65 -13
108 -54 58 -54 62 -75 62 -321 l0 -223 65 -4 c47 -2 66 1 70 10 3 8 5 111 5
230 0 199 2 219 21 259 60 124 224 138 287 24 18 -33 20 -58 24 -273 1 -130 5
-239 8 -241 3 -3 32 -7 65 -8 l60 -3 -2 245 c-2 147 -7 261 -14 287 -14 51
-77 120 -140 154 -37 19 -59 23 -134 23 -80 0 -95 -3 -136 -27 -25 -15 -61
-44 -81 -66 l-34 -38 -37 42 c-68 78 -183 113 -277 85z"/>
</g>
</svg>
