<?xml version="1.0" standalone="no"?>
<!DOCTYPE svg PUBLIC "-//W3C//DTD SVG 20010904//EN"
 "http://www.w3.org/TR/2001/REC-SVG-20010904/DTD/svg10.dtd">
<svg version="1.0" xmlns="http://www.w3.org/2000/svg"
 width="963.000000pt" height="963.000000pt" viewBox="0 0 963.000000 963.000000"
 preserveAspectRatio="xMidYMid meet">

<g transform="translate(0.000000,963.000000) scale(0.100000,-0.100000)"
fill="#000000" stroke="none">
<path d="M4515 9619 c-910 -57 -1793 -376 -2535 -916 -387 -281 -772 -666
-1053 -1053 -909 -1250 -1165 -2851 -690 -4314 161 -496 385 -937 690 -1356
281 -387 666 -772 1053 -1053 1254 -912 2858 -1166 4326 -687 488 160 930 386
1344 687 387 281 772 666 1053 1053 912 1255 1166 2855 686 4325 -160 491
-383 928 -686 1345 -281 387 -666 772 -1053 1053 -909 661 -2021 986 -3135
916z"/>
</g>
</svg>
